name rise35.5848peak51.9257fall54.8793.mot
datacolumns 19
datarows 20
range 16.97492700000000 17.00660000000000
endheader
time	ground_force1_vx	ground_force1_vy	ground_force1_vz	ground_force1_px	ground_force1_py	ground_force1_pz	ground_force2_vx	ground_force2_vy	ground_force2_vz	ground_force2_px	ground_force2_py	ground_force2_pz	ground_torque1_x	ground_torque1_y	ground_torque1_z	ground_torque2_x	ground_torque2_y	ground_torque2_z	
16.97492700000000	-37.86643100000000	783.70468300000005	50.43206300000000	0.09252100000000	0.00000000000000	0.11841200000000	-4.36049300000000	16.33914700000000	1.62786100000000	0.00000000000000	0.00000000000000	0.00000000000000	0.00000000000000	19.02843000000000	0.00000000000000	0.00000000000000	0.19951400000000	0.00000000000000	
16.97659900000000	-38.71665300000000	782.39058100000000	50.34003400000000	0.09153100000000	0.00000000000000	0.11835000000000	-5.52504400000000	21.81974600000000	2.10853100000000	0.00000000000000	0.00000000000000	0.00000000000000	0.00000000000000	19.04678500000000	0.00000000000000	0.00000000000000	0.26853400000000	0.00000000000000	
16.97826300000000	-39.58728600000000	780.98932500000001	50.23402400000000	0.09054300000000	0.00000000000000	0.11828500000000	-6.71225500000000	27.79555400000000	2.61355400000000	0.31061100000000	0.00000000000000	-0.07016400000000	0.00000000000000	19.06862400000000	0.00000000000000	0.00000000000000	0.68488400000000	0.00000000000000	
16.97993300000000	-40.47802800000000	779.49789699999997	50.11357800000000	0.08955600000000	0.00000000000000	0.11821900000000	-7.87922000000000	34.14499000000000	3.12800100000000	0.31511100000000	0.00000000000000	-0.07042400000000	0.00000000000000	19.09395200000000	0.00000000000000	0.00000000000000	0.85523500000000	0.00000000000000	
16.98159900000000	-41.38849300000000	777.91320299999995	49.97825900000000	0.08857100000000	0.00000000000000	0.11815000000000	-8.98381400000000	40.73921400000000	3.63671200000000	0.31912100000000	0.00000000000000	-0.07066400000000	0.00000000000000	19.12275800000000	0.00000000000000	0.00000000000000	1.03376100000000	0.00000000000000	
16.98326000000000	-42.31821200000000	776.23208299999999	49.82764600000000	0.08758800000000	0.00000000000000	0.11808000000000	-9.98777200000000	47.45271600000000	4.12541000000000	0.32271700000000	0.00000000000000	-0.07088600000000	0.00000000000000	19.15501200000000	0.00000000000000	0.00000000000000	1.21640000000000	0.00000000000000	
16.98493100000000	-43.26662800000000	774.45131000000003	49.66133600000000	0.08660700000000	0.00000000000000	0.11800800000000	-10.85920400000000	54.17274100000000	4.58165400000000	0.32595800000000	0.00000000000000	-0.07109500000000	0.00000000000000	19.19066800000000	0.00000000000000	0.00000000000000	1.39927300000000	0.00000000000000	
16.98660300000000	-44.23309700000000	772.56759599999998	49.47894600000000	0.08562800000000	0.00000000000000	0.11793400000000	-11.57431500000000	60.80653100000000	4.99552700000000	0.32889500000000	0.00000000000000	-0.07129200000000	0.00000000000000	19.22965900000000	0.00000000000000	0.00000000000000	1.57892200000000	0.00000000000000	
16.98826100000000	-45.21688200000000	770.57760099999996	49.28011600000000	0.08465300000000	0.00000000000000	0.11785700000000	-12.11822600000000	67.28590600000000	5.36001900000000	0.33156700000000	0.00000000000000	-0.07147800000000	0.00000000000000	19.27190000000000	0.00000000000000	0.00000000000000	1.75248300000000	0.00000000000000	
16.98993600000000	-46.21715800000000	768.47793300000001	49.06450600000000	0.08368000000000	0.00000000000000	0.11777900000000	-12.48495100000000	73.56911300000000	5.67111900000000	0.33400800000000	0.00000000000000	-0.07165600000000	0.00000000000000	19.31728500000000	0.00000000000000	0.00000000000000	1.91777900000000	0.00000000000000	
16.99159600000000	-47.23300800000000	766.26515900000004	48.83180300000000	0.08271000000000	0.00000000000000	0.11769800000000	-12.67664700000000	79.64019000000000	5.92764100000000	0.33624600000000	0.00000000000000	-0.07182600000000	0.00000000000000	19.36568900000000	0.00000000000000	0.00000000000000	2.07333900000000	0.00000000000000	
16.99326400000000	-48.26342000000000	763.93581200000006	48.58171700000000	0.08174400000000	0.00000000000000	0.11761500000000	-12.70232200000000	85.50632899999999	6.13084700000000	0.33830600000000	0.00000000000000	-0.07199100000000	0.00000000000000	19.41696700000000	0.00000000000000	0.00000000000000	2.21836200000000	0.00000000000000	
16.99492800000000	-49.30729100000000	761.48639600000001	48.31398800000000	0.08078200000000	0.00000000000000	0.11753000000000	-12.57620600000000	91.19377400000000	6.28393900000000	0.34020600000000	0.00000000000000	-0.07215000000000	0.00000000000000	19.47095300000000	0.00000000000000	0.00000000000000	2.35262000000000	0.00000000000000	
16.99659500000000	-50.36342300000000	758.91339700000003	48.02838200000000	0.07982400000000	0.00000000000000	0.11744200000000	-12.31597100000000	96.74288000000000	6.39147600000000	0.34196400000000	0.00000000000000	-0.07230400000000	0.00000000000000	19.52746000000000	0.00000000000000	0.00000000000000	2.47634300000000	0.00000000000000	
16.99826100000000	-51.43052800000000	756.21329000000003	47.72469300000000	0.07886900000000	0.00000000000000	0.11735300000000	-11.94097900000000	102.20286700000000	6.45877800000000	0.34359400000000	0.00000000000000	-0.07245400000000	0.00000000000000	19.58628000000000	0.00000000000000	0.00000000000000	2.59007700000000	0.00000000000000	
16.99993000000000	-52.50722200000000	753.38255000000004	47.40274800000000	0.07791900000000	0.00000000000000	0.11726100000000	-11.47069300000000	107.62675299999999	6.49138000000000	0.34510900000000	0.00000000000000	-0.07260100000000	0.00000000000000	19.64718600000000	0.00000000000000	0.00000000000000	2.69454500000000	0.00000000000000	
17.00160000000000	-53.59203200000000	750.41766099999995	47.06240400000000	0.07697400000000	0.00000000000000	0.11716700000000	-10.92334800000000	113.06684500000000	6.49455200000000	0.34651900000000	0.00000000000000	-0.07274500000000	0.00000000000000	19.70992800000000	0.00000000000000	0.00000000000000	2.79052200000000	0.00000000000000	
17.00326100000000	-54.68339300000000	747.31512699999996	46.70355100000000	0.07603300000000	0.00000000000000	0.11707000000000	-10.31494600000000	118.57104099999999	6.47293100000000	0.34783400000000	0.00000000000000	-0.07288700000000	0.00000000000000	19.77423700000000	0.00000000000000	0.00000000000000	2.87871900000000	0.00000000000000	
17.00493200000000	-55.77965200000000	744.07147899999995	46.32611300000000	0.07509600000000	0.00000000000000	0.11697100000000	-9.65859300000000	124.18009300000000	6.43026000000000	0.34906200000000	0.00000000000000	-0.07302600000000	0.00000000000000	19.83982300000000	0.00000000000000	0.00000000000000	2.95970100000000	0.00000000000000	
17.00660000000000	-56.87906800000000	740.68329200000005	45.93004700000000	0.07416500000000	0.00000000000000	0.11687000000000	-8.96416900000000	129.92585800000001	6.36923900000000	0.35020900000000	0.00000000000000	-0.07316300000000	0.00000000000000	19.90637900000000	0.00000000000000	0.00000000000000	3.03383200000000	0.00000000000000	
